<svg xmlns="http://www.w3.org/2000/svg" width="1000" height="600" viewBox="0 0 1000 600" role="img" aria-label="Player profile: Ahmed Yousri Sobhi, Level 5 Senior HPC Engineer. Class path: EE Graduate (2019), Data Scientist (2022), ML Engineer (2023), HPC Engineer (2023), Senior HPC Engineer (2025), next class Solutions Architect for AI infrastructure. Achievements: 1,500+ GPU nodes in production, solo owner of a 60-node DGX H100 SuperPod, 99%+ availability, deployed a DGX A100 cluster.">
<style>
.s{font-family:-apple-system,BlinkMacSystemFont,'Segoe UI',Helvetica,Arial,sans-serif} .m{font-family:ui-monospace,SFMono-Regular,Menlo,Consolas,monospace}
.pop{opacity:0;animation:pop .45s cubic-bezier(.3,1.6,.5,1) forwards;transform-box:fill-box;transform-origin:center}
@keyframes pop{from{opacity:0;transform:scale(.6)}to{opacity:1;transform:scale(1)}}
.bob{animation:bob 1.6s ease-in-out infinite}@keyframes bob{50%{transform:translateY(-4px)}}
.beam{animation:beam 2.2s ease-in-out infinite}@keyframes beam{50%{opacity:.35}}
.xp{animation:xp 2s .6s ease-out forwards;transform-box:fill-box;transform-origin:left;transform:scaleX(0)}@keyframes xp{to{transform:scaleX(1)}}
.lock{animation:lock 2s ease-in-out infinite}@keyframes lock{50%{stroke-opacity:.3}}
</style>
<rect x=".5" y=".5" width="999" height="599" rx="18" fill="#0f172a" stroke="#334155"/>
<text x="28" y="34" class="m" font-size="13" letter-spacing="2" fill="#94a3b8">PLAYER PROFILE</text>
<text x="972" y="34" text-anchor="end" class="m" font-size="13" letter-spacing="2" fill="#94a3b8">SAVE FILE · 2026</text>
<rect x="24" y="50" width="300" height="526" rx="14" fill="#1e293b"/>
<rect x="64" y="70" width="220" height="220" rx="12" fill="#0f172a" stroke="#334155"/>
<defs><clipPath id="frame"><rect x="65" y="71" width="218" height="218" rx="11"/></clipPath></defs><g clip-path="url(#frame)"><g class="bob">
<path class="beam" d="M214 131.0 L314 101.0 L314 166 Z" fill="#fff7cc" fill-opacity=".28"/>
<rect x="204" y="96" width="10" height="10" fill="#cbd5e1"/>
<rect x="214" y="96" width="10" height="10" fill="#cbd5e1"/>
<rect x="224" y="96" width="10" height="10" fill="#cbd5e1"/>
<rect x="234" y="96" width="10" height="10" fill="#cbd5e1"/>
<rect x="154" y="106" width="10" height="10" fill="#facc15"/>
<rect x="164" y="106" width="10" height="10" fill="#facc15"/>
<rect x="174" y="106" width="10" height="10" fill="#facc15"/>
<rect x="184" y="106" width="10" height="10" fill="#facc15"/>
<rect x="224" y="106" width="10" height="10" fill="#cbd5e1"/>
<rect x="144" y="116" width="10" height="10" fill="#facc15"/>
<rect x="154" y="116" width="10" height="10" fill="#facc15"/>
<rect x="164" y="116" width="10" height="10" fill="#facc15"/>
<rect x="174" y="116" width="10" height="10" fill="#facc15"/>
<rect x="184" y="116" width="10" height="10" fill="#facc15"/>
<rect x="194" y="116" width="10" height="10" fill="#facc15"/>
<rect x="224" y="116" width="10" height="10" fill="#cbd5e1"/>
<rect x="134" y="126" width="10" height="10" fill="#facc15"/>
<rect x="144" y="126" width="10" height="10" fill="#facc15"/>
<rect x="154" y="126" width="10" height="10" fill="#facc15"/>
<rect x="164" y="126" width="10" height="10" fill="#facc15"/>
<rect x="174" y="126" width="10" height="10" fill="#facc15"/>
<rect x="184" y="126" width="10" height="10" fill="#facc15"/>
<rect x="194" y="126" width="10" height="10" fill="#fff7cc"/>
<rect x="204" y="126" width="10" height="10" fill="#fff7cc"/>
<rect x="224" y="126" width="10" height="10" fill="#cbd5e1"/>
<rect x="134" y="136" width="10" height="10" fill="#a16207"/>
<rect x="144" y="136" width="10" height="10" fill="#a16207"/>
<rect x="154" y="136" width="10" height="10" fill="#a16207"/>
<rect x="164" y="136" width="10" height="10" fill="#a16207"/>
<rect x="174" y="136" width="10" height="10" fill="#a16207"/>
<rect x="184" y="136" width="10" height="10" fill="#a16207"/>
<rect x="194" y="136" width="10" height="10" fill="#a16207"/>
<rect x="204" y="136" width="10" height="10" fill="#a16207"/>
<rect x="224" y="136" width="10" height="10" fill="#cbd5e1"/>
<rect x="134" y="146" width="10" height="10" fill="#e8b48a"/>
<rect x="144" y="146" width="10" height="10" fill="#e8b48a"/>
<rect x="154" y="146" width="10" height="10" fill="#e8b48a"/>
<rect x="164" y="146" width="10" height="10" fill="#e8b48a"/>
<rect x="174" y="146" width="10" height="10" fill="#e8b48a"/>
<rect x="184" y="146" width="10" height="10" fill="#e8b48a"/>
<rect x="194" y="146" width="10" height="10" fill="#e8b48a"/>
<rect x="204" y="146" width="10" height="10" fill="#e8b48a"/>
<rect x="224" y="146" width="10" height="10" fill="#cbd5e1"/>
<rect x="134" y="156" width="10" height="10" fill="#e8b48a"/>
<rect x="144" y="156" width="10" height="10" fill="#0f172a"/>
<rect x="154" y="156" width="10" height="10" fill="#e8b48a"/>
<rect x="164" y="156" width="10" height="10" fill="#e8b48a"/>
<rect x="174" y="156" width="10" height="10" fill="#e8b48a"/>
<rect x="184" y="156" width="10" height="10" fill="#e8b48a"/>
<rect x="194" y="156" width="10" height="10" fill="#0f172a"/>
<rect x="204" y="156" width="10" height="10" fill="#e8b48a"/>
<rect x="224" y="156" width="10" height="10" fill="#cbd5e1"/>
<rect x="134" y="166" width="10" height="10" fill="#e8b48a"/>
<rect x="144" y="166" width="10" height="10" fill="#e8b48a"/>
<rect x="154" y="166" width="10" height="10" fill="#e8b48a"/>
<rect x="164" y="166" width="10" height="10" fill="#e8b48a"/>
<rect x="174" y="166" width="10" height="10" fill="#e8b48a"/>
<rect x="184" y="166" width="10" height="10" fill="#e8b48a"/>
<rect x="194" y="166" width="10" height="10" fill="#e8b48a"/>
<rect x="204" y="166" width="10" height="10" fill="#e8b48a"/>
<rect x="224" y="166" width="10" height="10" fill="#cbd5e1"/>
<rect x="144" y="176" width="10" height="10" fill="#e8b48a"/>
<rect x="154" y="176" width="10" height="10" fill="#e8b48a"/>
<rect x="164" y="176" width="10" height="10" fill="#9a3412"/>
<rect x="174" y="176" width="10" height="10" fill="#9a3412"/>
<rect x="184" y="176" width="10" height="10" fill="#e8b48a"/>
<rect x="194" y="176" width="10" height="10" fill="#e8b48a"/>
<rect x="224" y="176" width="10" height="10" fill="#cbd5e1"/>
<rect x="124" y="186" width="10" height="10" fill="#92400e"/>
<rect x="134" y="186" width="10" height="10" fill="#92400e"/>
<rect x="144" y="186" width="10" height="10" fill="#3b82f6"/>
<rect x="154" y="186" width="10" height="10" fill="#3b82f6"/>
<rect x="164" y="186" width="10" height="10" fill="#3b82f6"/>
<rect x="174" y="186" width="10" height="10" fill="#3b82f6"/>
<rect x="184" y="186" width="10" height="10" fill="#3b82f6"/>
<rect x="194" y="186" width="10" height="10" fill="#3b82f6"/>
<rect x="204" y="186" width="10" height="10" fill="#92400e"/>
<rect x="214" y="186" width="10" height="10" fill="#92400e"/>
<rect x="224" y="186" width="10" height="10" fill="#cbd5e1"/>
<rect x="114" y="196" width="10" height="10" fill="#92400e"/>
<rect x="124" y="196" width="10" height="10" fill="#92400e"/>
<rect x="134" y="196" width="10" height="10" fill="#3b82f6"/>
<rect x="144" y="196" width="10" height="10" fill="#3b82f6"/>
<rect x="154" y="196" width="10" height="10" fill="#3b82f6"/>
<rect x="164" y="196" width="10" height="10" fill="#3b82f6"/>
<rect x="174" y="196" width="10" height="10" fill="#3b82f6"/>
<rect x="184" y="196" width="10" height="10" fill="#3b82f6"/>
<rect x="194" y="196" width="10" height="10" fill="#3b82f6"/>
<rect x="204" y="196" width="10" height="10" fill="#3b82f6"/>
<rect x="214" y="196" width="10" height="10" fill="#92400e"/>
<rect x="224" y="196" width="10" height="10" fill="#e8b48a"/>
<rect x="114" y="206" width="10" height="10" fill="#92400e"/>
<rect x="124" y="206" width="10" height="10" fill="#92400e"/>
<rect x="134" y="206" width="10" height="10" fill="#3b82f6"/>
<rect x="144" y="206" width="10" height="10" fill="#3b82f6"/>
<rect x="154" y="206" width="10" height="10" fill="#3b82f6"/>
<rect x="164" y="206" width="10" height="10" fill="#4ade80"/>
<rect x="174" y="206" width="10" height="10" fill="#4ade80"/>
<rect x="184" y="206" width="10" height="10" fill="#3b82f6"/>
<rect x="194" y="206" width="10" height="10" fill="#3b82f6"/>
<rect x="204" y="206" width="10" height="10" fill="#3b82f6"/>
<rect x="214" y="206" width="10" height="10" fill="#92400e"/>
<rect x="224" y="206" width="10" height="10" fill="#e8b48a"/>
<rect x="114" y="216" width="10" height="10" fill="#e8b48a"/>
<rect x="124" y="216" width="10" height="10" fill="#e8b48a"/>
<rect x="134" y="216" width="10" height="10" fill="#3b82f6"/>
<rect x="144" y="216" width="10" height="10" fill="#3b82f6"/>
<rect x="154" y="216" width="10" height="10" fill="#3b82f6"/>
<rect x="164" y="216" width="10" height="10" fill="#4ade80"/>
<rect x="174" y="216" width="10" height="10" fill="#4ade80"/>
<rect x="184" y="216" width="10" height="10" fill="#3b82f6"/>
<rect x="194" y="216" width="10" height="10" fill="#3b82f6"/>
<rect x="204" y="216" width="10" height="10" fill="#3b82f6"/>
<rect x="134" y="226" width="10" height="10" fill="#3b82f6"/>
<rect x="144" y="226" width="10" height="10" fill="#3b82f6"/>
<rect x="154" y="226" width="10" height="10" fill="#3b82f6"/>
<rect x="164" y="226" width="10" height="10" fill="#3b82f6"/>
<rect x="174" y="226" width="10" height="10" fill="#3b82f6"/>
<rect x="184" y="226" width="10" height="10" fill="#3b82f6"/>
<rect x="194" y="226" width="10" height="10" fill="#3b82f6"/>
<rect x="204" y="226" width="10" height="10" fill="#3b82f6"/>
<rect x="134" y="236" width="10" height="10" fill="#1e293b"/>
<rect x="144" y="236" width="10" height="10" fill="#1e293b"/>
<rect x="154" y="236" width="10" height="10" fill="#1e293b"/>
<rect x="164" y="236" width="10" height="10" fill="#1e293b"/>
<rect x="174" y="236" width="10" height="10" fill="#1e293b"/>
<rect x="184" y="236" width="10" height="10" fill="#1e293b"/>
<rect x="194" y="236" width="10" height="10" fill="#1e293b"/>
<rect x="204" y="236" width="10" height="10" fill="#1e293b"/>
<rect x="134" y="246" width="10" height="10" fill="#334155"/>
<rect x="144" y="246" width="10" height="10" fill="#334155"/>
<rect x="154" y="246" width="10" height="10" fill="#334155"/>
<rect x="184" y="246" width="10" height="10" fill="#334155"/>
<rect x="194" y="246" width="10" height="10" fill="#334155"/>
<rect x="204" y="246" width="10" height="10" fill="#334155"/>
<rect x="134" y="256" width="10" height="10" fill="#334155"/>
<rect x="144" y="256" width="10" height="10" fill="#334155"/>
<rect x="154" y="256" width="10" height="10" fill="#334155"/>
<rect x="184" y="256" width="10" height="10" fill="#334155"/>
<rect x="194" y="256" width="10" height="10" fill="#334155"/>
<rect x="204" y="256" width="10" height="10" fill="#334155"/>
<rect x="124" y="266" width="10" height="10" fill="#78350f"/>
<rect x="134" y="266" width="10" height="10" fill="#78350f"/>
<rect x="144" y="266" width="10" height="10" fill="#78350f"/>
<rect x="154" y="266" width="10" height="10" fill="#78350f"/>
<rect x="184" y="266" width="10" height="10" fill="#78350f"/>
<rect x="194" y="266" width="10" height="10" fill="#78350f"/>
<rect x="204" y="266" width="10" height="10" fill="#78350f"/>
<rect x="214" y="266" width="10" height="10" fill="#78350f"/>
</g></g>
<rect x="64" y="278" width="220" height="4" fill="#334155"/>
<text x="174" y="330" text-anchor="middle" class="s" font-size="23" font-weight="800" fill="#f8fafc">Ahmed Yousri Sobhi</text>
<text x="174" y="357" text-anchor="middle" class="s" font-size="17" font-weight="700" fill="#facc15">Lv. 5 · Senior HPC Engineer</text>
<text x="174" y="380" text-anchor="middle" class="s" font-size="14" fill="#94a3b8">Alexandria, Egypt · open to remote</text>
<text x="48" y="418" class="s" font-size="14" font-weight="600" fill="#94a3b8">XP to next class</text><text x="300" y="418" text-anchor="end" class="m" font-size="14" fill="#f8fafc">83%</text>
<rect x="48" y="428" width="252" height="14" rx="7" fill="#0f172a"/><rect class="xp" x="48" y="428" width="209" height="14" rx="7" fill="#4ade80"/>
<text x="48" y="464" class="s" font-size="14" fill="#94a3b8">next: <tspan fill="#a78bfa" font-weight="700">Solutions Architect</tspan></text>
<rect x="44" y="484" width="260" height="76" rx="10" fill="#0f172a" stroke="#a78bfa" stroke-opacity=".7"/>
<text x="60" y="508" class="m" font-size="12" letter-spacing="1.5" fill="#a78bfa">MAIN QUEST</text>
<text x="60" y="530" class="s" font-size="15" font-weight="700" fill="#f8fafc">Design AI infrastructure</text>
<text x="60" y="549" class="s" font-size="15" font-weight="700" fill="#f8fafc">end to end</text>
<text x="348" y="72" class="m" font-size="13" letter-spacing="2" fill="#94a3b8">CLASS PATH</text>
<g class="pop" style="animation-delay:0.15s"><rect x="348.0" y="86" width="96" height="132" rx="12" fill="#1e293b" stroke="#4ade80" stroke-width="1.5"/>
<text x="360.0" y="110" class="m" font-size="13" font-weight="700" fill="#4ade80">Lv.1</text><text x="432.0" y="110" text-anchor="end" class="s" font-size="15" fill="#4ade80">✓</text>
<text x="396.0" y="146" text-anchor="middle" class="s" font-size="15" font-weight="800" fill="#f8fafc">EE</text>
<text x="396.0" y="165" text-anchor="middle" class="s" font-size="15" font-weight="800" fill="#f8fafc">Graduate</text>
<text x="396.0" y="190" text-anchor="middle" class="s" font-size="11" fill="#94a3b8">Alexandria U.</text>
<text x="396.0" y="208" text-anchor="middle" class="m" font-size="12" font-weight="700" fill="#4ade80">2019</text></g>
<g class="pop" style="animation-delay:0.33s"><rect x="454.4" y="86" width="96" height="132" rx="12" fill="#1e293b" stroke="#4ade80" stroke-width="1.5"/>
<text x="466.4" y="110" class="m" font-size="13" font-weight="700" fill="#4ade80">Lv.2</text><text x="538.4" y="110" text-anchor="end" class="s" font-size="15" fill="#4ade80">✓</text>
<text x="502.4" y="146" text-anchor="middle" class="s" font-size="15" font-weight="800" fill="#f8fafc">Data</text>
<text x="502.4" y="165" text-anchor="middle" class="s" font-size="15" font-weight="800" fill="#f8fafc">Scientist</text>
<text x="502.4" y="190" text-anchor="middle" class="s" font-size="12" fill="#94a3b8">elmenus</text>
<text x="502.4" y="208" text-anchor="middle" class="m" font-size="12" font-weight="700" fill="#4ade80">2022</text></g>
<g class="pop" style="animation-delay:0.51s"><rect x="560.8" y="86" width="96" height="132" rx="12" fill="#1e293b" stroke="#4ade80" stroke-width="1.5"/>
<text x="572.8" y="110" class="m" font-size="13" font-weight="700" fill="#4ade80">Lv.3</text><text x="644.8" y="110" text-anchor="end" class="s" font-size="15" fill="#4ade80">✓</text>
<text x="608.8" y="146" text-anchor="middle" class="s" font-size="15" font-weight="800" fill="#f8fafc">ML</text>
<text x="608.8" y="165" text-anchor="middle" class="s" font-size="15" font-weight="800" fill="#f8fafc">Engineer</text>
<text x="608.8" y="190" text-anchor="middle" class="s" font-size="12" fill="#94a3b8">Omdena</text>
<text x="608.8" y="208" text-anchor="middle" class="m" font-size="12" font-weight="700" fill="#4ade80">2023</text></g>
<g class="pop" style="animation-delay:0.69s"><rect x="667.2" y="86" width="96" height="132" rx="12" fill="#1e293b" stroke="#4ade80" stroke-width="1.5"/>
<text x="679.2" y="110" class="m" font-size="13" font-weight="700" fill="#4ade80">Lv.4</text><text x="751.2" y="110" text-anchor="end" class="s" font-size="15" fill="#4ade80">✓</text>
<text x="715.2" y="146" text-anchor="middle" class="s" font-size="15" font-weight="800" fill="#f8fafc">HPC</text>
<text x="715.2" y="165" text-anchor="middle" class="s" font-size="15" font-weight="800" fill="#f8fafc">Engineer</text>
<text x="715.2" y="190" text-anchor="middle" class="s" font-size="11" fill="#94a3b8">KAUST · ESPRIT</text>
<text x="715.2" y="208" text-anchor="middle" class="m" font-size="12" font-weight="700" fill="#4ade80">2023</text></g>
<g class="pop" style="animation-delay:0.87s"><rect x="773.6" y="86" width="96" height="132" rx="12" fill="#1e293b" stroke="#facc15" stroke-width="2.5"/>
<text x="785.6" y="110" class="m" font-size="13" font-weight="700" fill="#facc15">Lv.5</text><text x="857.6" y="110" text-anchor="end" class="s" font-size="15" fill="#facc15">★</text>
<text x="821.6" y="146" text-anchor="middle" class="s" font-size="15" font-weight="800" fill="#f8fafc">Senior HPC</text>
<text x="821.6" y="165" text-anchor="middle" class="s" font-size="15" font-weight="800" fill="#f8fafc">Engineer</text>
<text x="821.6" y="190" text-anchor="middle" class="s" font-size="11" fill="#94a3b8">SDAIA · Core42</text>
<text x="821.6" y="208" text-anchor="middle" class="m" font-size="12" font-weight="700" fill="#facc15">2025</text></g>
<g class="pop" style="animation-delay:1.05s"><rect x="880.0" y="86" width="96" height="132" rx="12" fill="#1e293b" stroke="#a78bfa" stroke-width="2.5" class="lock" stroke-dasharray="6 5"/>
<text x="892.0" y="110" class="m" font-size="13" font-weight="700" fill="#a78bfa">Lv.6</text><text x="964.0" y="110" text-anchor="end" class="s" font-size="15" fill="#a78bfa">🔒</text>
<text x="928.0" y="146" text-anchor="middle" class="s" font-size="15" font-weight="800" fill="#f8fafc">Solutions</text>
<text x="928.0" y="165" text-anchor="middle" class="s" font-size="15" font-weight="800" fill="#f8fafc">Architect</text>
<text x="928.0" y="190" text-anchor="middle" class="s" font-size="12" fill="#94a3b8">AI infra</text>
<text x="928.0" y="208" text-anchor="middle" class="m" font-size="12" font-weight="700" fill="#a78bfa">next</text></g>
<text x="348" y="262" class="m" font-size="13" letter-spacing="2" fill="#94a3b8">ACHIEVEMENTS UNLOCKED</text>
<g class="pop" style="animation-delay:1.30s"><rect x="348.0" y="276" width="148" height="108" rx="12" fill="#1e293b" stroke="#facc15" stroke-opacity=".45"/><text x="362.0" y="310" font-size="24">🏆</text><text x="362.0" y="338" class="s" font-size="16" font-weight="800" fill="#facc15">1,500+ GPUs</text><text x="362.0" y="358" class="s" font-size="13" fill="#94a3b8">nodes kept running</text><text x="362.0" y="374" class="s" font-size="13" fill="#94a3b8">in production</text></g>
<g class="pop" style="animation-delay:1.50s"><rect x="508.6" y="276" width="148" height="108" rx="12" fill="#1e293b" stroke="#facc15" stroke-opacity=".45"/><text x="522.6" y="310" font-size="24">👑</text><text x="522.6" y="338" class="s" font-size="16" font-weight="800" fill="#facc15">Solo SuperPod</text><text x="522.6" y="358" class="s" font-size="13" fill="#94a3b8">owned a 60-node</text><text x="522.6" y="374" class="s" font-size="13" fill="#94a3b8">DGX H100 alone</text></g>
<g class="pop" style="animation-delay:1.70s"><rect x="669.2" y="276" width="148" height="108" rx="12" fill="#1e293b" stroke="#facc15" stroke-opacity=".45"/><text x="683.2" y="310" font-size="24">⚡</text><text x="683.2" y="338" class="s" font-size="16" font-weight="800" fill="#facc15">99%+ Uptime</text><text x="683.2" y="358" class="s" font-size="13" fill="#94a3b8">availability on</text><text x="683.2" y="374" class="s" font-size="13" fill="#94a3b8">24/7 AI platforms</text></g>
<g class="pop" style="animation-delay:1.90s"><rect x="829.8" y="276" width="148" height="108" rx="12" fill="#1e293b" stroke="#facc15" stroke-opacity=".45"/><text x="843.8" y="310" font-size="24">🔧</text><text x="843.8" y="338" class="s" font-size="16" font-weight="800" fill="#facc15">Cluster Raiser</text><text x="843.8" y="358" class="s" font-size="13" fill="#94a3b8">built a DGX A100</text><text x="843.8" y="374" class="s" font-size="13" fill="#94a3b8">from bare metal</text></g>
<text x="348" y="420" class="m" font-size="13" letter-spacing="2" fill="#94a3b8">EQUIPPED</text>
<g class="pop" style="animation-delay:2.20s"><rect x="348" y="434" width="69.0" height="32" rx="8" fill="#1e293b" stroke="#334155"/><text x="382.5" y="455" text-anchor="middle" class="s" font-size="14.5" font-weight="600" fill="#f8fafc">SLURM</text></g>
<g class="pop" style="animation-delay:2.26s"><rect x="426.0" y="434" width="112.0" height="32" rx="8" fill="#1e293b" stroke="#334155"/><text x="482.0" y="455" text-anchor="middle" class="s" font-size="14.5" font-weight="600" fill="#f8fafc">Kubernetes</text></g>
<g class="pop" style="animation-delay:2.32s"><rect x="547.0" y="434" width="112.0" height="32" rx="8" fill="#1e293b" stroke="#334155"/><text x="603.0" y="455" text-anchor="middle" class="s" font-size="14.5" font-weight="600" fill="#f8fafc">NVIDIA BCM</text></g>
<g class="pop" style="animation-delay:2.38s"><rect x="668.0" y="434" width="103.39999999999999" height="32" rx="8" fill="#1e293b" stroke="#334155"/><text x="719.7" y="455" text-anchor="middle" class="s" font-size="14.5" font-weight="600" fill="#f8fafc">DeepSpeed</text></g>
<g class="pop" style="animation-delay:2.44s"><rect x="780.4" y="434" width="60.4" height="32" rx="8" fill="#1e293b" stroke="#334155"/><text x="810.6" y="455" text-anchor="middle" class="s" font-size="14.5" font-weight="600" fill="#f8fafc">FSDP</text></g>
<g class="pop" style="animation-delay:2.50s"><rect x="849.8" y="434" width="86.19999999999999" height="32" rx="8" fill="#1e293b" stroke="#334155"/><text x="892.9" y="455" text-anchor="middle" class="s" font-size="14.5" font-weight="600" fill="#f8fafc">PyTorch</text></g>
<g class="pop" style="animation-delay:2.56s"><rect x="348" y="476" width="112.0" height="32" rx="8" fill="#1e293b" stroke="#334155"/><text x="404.0" y="497" text-anchor="middle" class="s" font-size="14.5" font-weight="600" fill="#f8fafc">DDN Lustre</text></g>
<g class="pop" style="animation-delay:2.62s"><rect x="469.0" y="476" width="86.19999999999999" height="32" rx="8" fill="#1e293b" stroke="#334155"/><text x="512.1" y="497" text-anchor="middle" class="s" font-size="14.5" font-weight="600" fill="#f8fafc">Ansible</text></g>
<g class="pop" style="animation-delay:2.68s"><rect x="564.2" y="476" width="77.6" height="32" rx="8" fill="#1e293b" stroke="#334155"/><text x="603.0" y="497" text-anchor="middle" class="s" font-size="14.5" font-weight="600" fill="#f8fafc">Python</text></g>
<text x="348" y="542" class="m" font-size="13" letter-spacing="2" fill="#94a3b8">SIDE QUESTS</text>
<text x="348" y="568" class="s" font-size="15" fill="#f8fafc">▸ local RAG pipeline   ▸ aCupOfTea: LLM inference guide   ▸ MSc, Ain Shams</text>
</svg>